<?xml version="1.0" standalone="no"?>
<!DOCTYPE svg PUBLIC "-//W3C//DTD SVG 20010904//EN"
 "http://www.w3.org/TR/2001/REC-SVG-20010904/DTD/svg10.dtd">
<svg version="1.0" xmlns="http://www.w3.org/2000/svg"
 width="1024.000000pt" height="1024.000000pt" viewBox="0 0 1024.000000 1024.000000"
 preserveAspectRatio="xMidYMid meet">
<metadata>
Created by potrace 1.14, written by Peter Selinger 2001-2017
</metadata>
<g transform="translate(0.000000,1024.000000) scale(0.100000,-0.100000)"
fill="#000000" stroke="none">
<path d="M4955 10060 c-264 -17 -571 -58 -680 -90 -35 -11 -68 -18 -144 -31
-62 -11 -159 -37 -281 -75 -47 -14 -114 -34 -150 -43 -36 -10 -93 -28 -125
-40 -33 -13 -98 -36 -144 -52 -46 -16 -89 -33 -96 -39 -7 -6 -38 -19 -70 -30
-32 -11 -63 -24 -69 -29 -6 -4 -48 -23 -93 -41 -45 -18 -97 -43 -114 -56 -18
-13 -39 -24 -47 -24 -15 0 -57 -23 -215 -119 -59 -36 -139 -82 -177 -102 -37
-19 -88 -51 -112 -70 -23 -19 -74 -55 -113 -79 -96 -59 -261 -189 -467 -366
-94 -81 -339 -321 -382 -374 -15 -19 -55 -63 -87 -97 -33 -34 -70 -77 -83 -95
-12 -19 -32 -45 -44 -59 -54 -62 -136 -169 -170 -222 -20 -32 -56 -82 -79
-112 -23 -29 -51 -72 -63 -96 -26 -49 -91 -151 -103 -160 -5 -3 -14 -17 -21
-30 -7 -13 -18 -33 -24 -44 -6 -11 -18 -36 -27 -55 -8 -19 -33 -66 -54 -105
-22 -38 -50 -90 -62 -115 -64 -133 -89 -188 -89 -193 0 -3 -19 -45 -41 -94
-23 -48 -52 -117 -65 -153 -12 -36 -39 -110 -59 -165 -20 -55 -38 -108 -40
-117 -2 -9 -8 -25 -13 -35 -6 -10 -10 -21 -11 -25 -1 -5 -1 -9 -2 -10 0 -2 -2
-10 -4 -18 -2 -8 -13 -49 -24 -90 -29 -107 -72 -281 -76 -310 -2 -14 -11 -59
-20 -100 -9 -41 -18 -91 -20 -110 -15 -114 -35 -248 -39 -270 -16 -72 -28
-419 -22 -635 7 -293 12 -369 26 -459 6 -39 15 -102 21 -141 5 -38 16 -101 24
-140 8 -38 17 -88 21 -110 10 -62 83 -352 109 -430 12 -38 29 -94 38 -123 18
-57 77 -221 104 -287 51 -125 222 -486 253 -535 5 -8 35 -60 66 -115 31 -55
73 -125 94 -155 21 -30 44 -71 52 -90 8 -20 33 -56 54 -81 21 -25 51 -66 67
-90 15 -24 56 -82 92 -129 35 -47 76 -101 90 -120 61 -82 287 -332 383 -425
231 -222 332 -311 396 -350 18 -11 58 -43 89 -72 32 -28 82 -66 112 -83 30
-17 57 -36 61 -41 3 -5 24 -22 47 -36 23 -14 62 -43 87 -64 25 -20 72 -51 105
-69 73 -38 161 -91 195 -118 14 -11 55 -33 90 -50 36 -17 112 -56 170 -87 58
-32 152 -77 210 -101 58 -24 123 -53 145 -64 94 -47 305 -123 485 -174 69 -20
154 -45 190 -56 57 -17 97 -26 150 -33 8 -2 21 -6 28 -10 6 -5 87 -17 180 -28
150 -17 239 -19 859 -19 742 0 748 0 1008 56 39 9 80 17 92 20 12 2 35 9 50
15 16 6 35 12 43 14 8 3 42 12 75 21 33 9 67 18 75 19 72 16 344 111 387 134
10 6 72 33 138 61 66 28 170 76 232 106 62 30 116 54 121 54 4 0 24 12 43 26
19 14 58 37 87 50 29 13 65 33 80 43 30 21 150 93 216 131 64 37 121 77 208
146 42 34 87 65 100 69 23 8 57 34 133 103 23 20 65 55 94 77 73 54 210 173
243 210 15 16 32 35 39 40 50 44 241 240 269 275 19 25 56 67 81 95 67 72 124
142 167 205 52 77 152 210 180 240 13 14 32 43 43 65 11 22 29 54 42 71 12 18
31 47 42 65 11 19 30 50 42 69 13 19 26 42 30 50 4 8 19 33 34 55 15 23 31 53
35 69 3 15 22 50 41 78 20 28 39 66 44 83 5 18 20 48 33 67 13 20 29 53 36 74
7 22 17 45 23 52 5 6 6 12 3 12 -4 0 1 12 11 28 18 25 26 44 68 150 52 133
170 484 190 567 10 44 20 85 21 90 1 6 14 69 29 140 14 72 32 162 40 200 32
150 38 260 42 770 3 440 1 540 -13 650 -9 72 -18 141 -19 155 -7 54 -26 166
-32 180 -4 8 -7 17 -8 20 -1 3 -4 12 -7 20 -3 8 -13 51 -22 95 -20 100 -22
107 -41 175 -9 30 -22 80 -30 110 -8 30 -35 114 -61 185 -25 72 -58 166 -73
210 -15 44 -53 132 -83 196 -30 63 -58 129 -62 145 -4 16 -20 49 -36 74 -16
25 -43 75 -60 110 -17 36 -49 97 -73 137 -23 39 -60 102 -81 140 -22 37 -56
93 -77 123 -20 30 -52 80 -72 111 -19 32 -42 65 -51 75 -17 21 -92 121 -171
228 -146 199 -618 671 -816 816 -26 19 -78 60 -116 90 -37 31 -106 82 -153
113 -47 32 -112 78 -145 102 -33 24 -65 44 -71 44 -5 1 -48 25 -95 54 -46 29
-109 65 -139 81 -30 16 -72 40 -95 54 -51 33 -247 132 -260 132 -6 0 -28 10
-50 21 -63 34 -342 147 -460 186 -70 24 -219 69 -255 78 -14 3 -34 10 -45 15
-26 11 -121 33 -280 65 -71 15 -139 31 -150 35 -11 5 -51 13 -90 19 -38 5 -88
13 -110 16 -230 35 -627 51 -880 35z m710 -199 c249 -29 424 -57 560 -90 66
-16 138 -33 160 -37 22 -3 45 -10 50 -14 6 -5 30 -13 55 -20 25 -6 112 -36
194 -66 82 -30 153 -54 158 -54 8 0 120 -45 253 -102 189 -81 480 -233 602
-315 48 -32 103 -65 122 -73 18 -7 52 -29 75 -48 22 -19 75 -57 116 -85 41
-27 98 -69 125 -91 28 -23 75 -61 105 -84 132 -101 238 -196 412 -369 154
-153 258 -265 299 -323 18 -24 40 -51 49 -60 25 -22 140 -176 179 -240 19 -30
51 -75 71 -100 20 -25 49 -67 65 -93 17 -26 47 -74 67 -105 21 -31 38 -60 38
-64 0 -3 16 -30 35 -59 19 -30 40 -69 46 -89 7 -19 26 -59 43 -89 65 -112 107
-198 125 -253 10 -31 28 -70 40 -86 11 -17 21 -36 21 -44 0 -8 9 -30 19 -51
10 -20 22 -49 26 -64 3 -16 13 -41 20 -58 15 -32 53 -138 60 -167 2 -10 10
-32 18 -50 17 -36 33 -89 41 -128 3 -14 15 -61 26 -105 12 -44 23 -91 26 -105
13 -72 27 -137 32 -150 8 -22 11 -36 26 -140 8 -52 19 -117 25 -145 27 -128
44 -414 42 -701 -1 -160 -4 -302 -6 -315 -3 -13 -12 -80 -21 -149 -25 -201
-76 -486 -103 -578 -5 -18 -11 -36 -12 -40 -1 -4 -3 -11 -5 -17 -1 -5 -7 -30
-12 -55 -15 -67 -44 -159 -96 -305 -26 -71 -53 -148 -60 -170 -12 -37 -54
-133 -127 -294 -16 -35 -29 -68 -29 -73 0 -6 -12 -29 -28 -52 -15 -22 -36 -61
-47 -86 -10 -25 -24 -52 -31 -60 -6 -8 -28 -46 -47 -85 -48 -95 -95 -172 -139
-225 -20 -25 -57 -81 -83 -125 -26 -44 -62 -97 -81 -117 -18 -20 -42 -54 -53
-75 -10 -21 -31 -49 -46 -63 -15 -14 -52 -59 -83 -100 -30 -41 -83 -104 -117
-140 -34 -36 -97 -103 -142 -150 -106 -113 -269 -270 -280 -270 -5 0 -40 -31
-79 -69 -39 -38 -104 -93 -145 -121 -93 -65 -193 -139 -242 -182 -21 -18 -66
-49 -101 -68 -35 -19 -110 -66 -167 -104 -98 -65 -146 -93 -284 -166 -33 -18
-67 -38 -75 -45 -8 -7 -33 -18 -54 -25 -33 -11 -164 -70 -301 -135 -16 -8 -93
-37 -171 -64 -77 -27 -176 -63 -220 -81 -43 -17 -97 -35 -119 -40 -22 -4 -85
-20 -140 -35 -174 -47 -372 -91 -445 -99 -64 -8 -216 -23 -348 -37 -236 -23
-812 -6 -1034 31 -29 5 -82 14 -118 19 -36 6 -90 17 -120 25 -105 28 -215 54
-255 61 -22 4 -53 12 -70 19 -16 7 -75 27 -130 44 -55 17 -145 48 -200 68 -55
20 -127 47 -160 58 -33 12 -69 27 -80 33 -11 6 -85 40 -165 76 -80 36 -179 84
-220 106 -41 22 -107 56 -147 75 -40 20 -94 51 -120 71 -90 68 -148 105 -208
133 -33 16 -84 51 -114 78 -29 26 -71 57 -91 69 -41 22 -184 136 -345 273
-160 138 -531 519 -561 577 -12 23 -31 48 -85 109 -19 23 -51 64 -69 91 -19
28 -51 75 -72 105 -21 30 -61 89 -90 130 -28 41 -55 77 -59 78 -5 2 -9 9 -9
16 0 7 -12 31 -26 52 -15 21 -47 77 -72 124 -95 181 -108 206 -124 230 -9 14
-28 54 -41 90 -14 36 -50 117 -80 180 -30 63 -80 192 -111 285 -32 94 -64 186
-73 205 -9 19 -26 77 -39 130 -12 52 -30 122 -38 155 -8 33 -17 72 -20 88 -3
15 -7 35 -10 45 -3 10 -13 60 -21 112 -66 427 -75 537 -70 925 3 192 10 320
25 445 11 96 23 182 25 190 2 8 7 31 10 50 22 132 76 375 110 495 1 6 3 13 4
17 1 8 36 107 48 138 4 8 7 17 8 20 1 3 5 13 9 22 4 9 9 22 10 30 2 7 8 24 13
38 6 14 14 39 17 57 4 17 16 48 27 69 10 21 19 46 19 56 0 9 4 19 9 22 4 3 11
20 15 37 3 17 33 88 67 158 34 69 80 164 102 211 23 47 51 99 63 115 20 29 54
97 54 109 0 5 142 240 174 288 57 85 200 280 237 322 25 29 66 80 90 112 47
63 109 132 229 257 41 42 93 96 115 120 68 71 312 278 459 391 28 21 59 47 68
57 10 10 39 31 65 46 27 15 71 44 98 65 28 21 64 45 80 53 36 18 53 29 117 73
26 17 50 32 53 32 3 0 29 16 57 35 44 31 169 95 185 95 3 0 25 14 50 30 24 17
46 30 49 30 3 0 43 18 87 40 150 73 460 193 602 234 28 8 69 22 93 30 24 9 51
18 60 20 9 1 24 6 32 9 32 12 87 26 130 32 25 4 52 11 60 15 15 8 39 13 115
25 22 4 51 11 65 16 14 5 66 13 115 19 95 10 230 27 280 35 17 2 93 9 170 15
77 6 142 14 145 17 11 12 483 -7 645 -26z"/>
<path d="M6680 9478 c-8 -24 -17 -47 -20 -53 -4 -5 -15 -37 -25 -70 -30 -104
-148 -450 -155 -460 -4 -5 -11 -26 -15 -45 -4 -19 -18 -65 -31 -103 -13 -37
-23 -68 -23 -70 0 -1 -5 -15 -11 -31 -6 -16 -15 -49 -21 -74 -5 -26 -14 -51
-19 -57 -9 -10 -38 -86 -45 -117 -2 -9 -8 -25 -14 -36 -15 -28 -80 -229 -92
-281 -5 -25 -14 -55 -19 -66 -26 -54 -81 -247 -78 -272 2 -21 12 -32 43 -47
22 -10 57 -21 77 -23 35 -5 37 -4 61 43 13 27 28 60 32 74 4 14 16 37 26 51
10 14 21 38 25 55 4 16 20 58 35 94 15 36 37 93 48 127 12 35 32 86 45 115 51
113 76 176 76 189 0 7 8 31 19 53 33 73 61 144 61 158 1 7 9 31 20 53 11 22
19 44 20 49 0 7 48 122 96 233 8 17 14 37 14 45 0 8 9 31 20 53 11 21 25 54
31 74 6 20 17 50 25 68 8 17 14 36 14 42 0 7 6 22 14 34 20 31 42 145 31 156
-11 11 -220 81 -240 81 -6 0 -18 -19 -25 -42z"/>
<path d="M5229 9314 c-10 -12 -16 -69 -21 -198 -9 -249 -28 -978 -28 -1108 l0
-107 102 2 102 2 -2 200 c-10 1010 -21 1188 -72 1215 -28 15 -66 12 -81 -6z"/>
<path d="M3934 9025 c-15 -23 -15 -29 1 -78 9 -28 19 -61 21 -72 6 -34 36
-157 52 -215 8 -30 17 -64 19 -75 2 -11 6 -27 10 -35 3 -8 7 -18 8 -22 2 -5 4
-10 5 -13 3 -6 4 -10 14 -50 4 -16 10 -37 13 -45 9 -22 43 -140 49 -170 3 -14
9 -34 14 -45 5 -11 16 -51 25 -90 16 -66 60 -222 73 -255 3 -8 15 -49 26 -90
l21 -75 38 1 c45 2 157 44 157 60 0 15 -23 85 -55 169 -14 39 -35 99 -47 135
-11 36 -25 71 -30 78 -6 6 -8 12 -4 12 3 0 -3 24 -13 53 -11 28 -27 79 -37
112 -9 33 -20 65 -24 70 -4 6 -17 44 -29 85 -12 41 -40 129 -62 195 -104 303
-115 326 -169 362 -42 29 -56 29 -76 -2z"/>
<path d="M2451 8869 c-35 -14 -119 -87 -126 -110 -9 -26 15 -65 112 -184 43
-54 88 -111 101 -129 12 -17 33 -44 47 -61 55 -65 152 -192 170 -222 22 -34
109 -143 196 -243 31 -36 72 -90 91 -120 20 -30 51 -72 71 -92 19 -21 40 -52
47 -68 7 -17 27 -42 44 -55 18 -14 50 -50 72 -80 21 -31 64 -87 94 -125 30
-38 66 -83 79 -100 23 -30 26 -31 75 -25 61 8 116 32 116 51 0 13 -114 185
-245 369 -35 50 -74 108 -85 129 -12 22 -38 59 -59 82 -21 24 -50 62 -66 86
-16 24 -55 77 -86 119 -31 41 -65 91 -74 110 -20 38 -129 184 -146 194 -5 4
-14 17 -19 28 -6 12 -30 49 -55 82 -24 33 -53 76 -64 95 -39 71 -172 241 -203
260 -36 22 -51 23 -87 9z"/>
<path d="M7857 8351 c-15 -17 -33 -28 -40 -25 -12 4 -38 -22 -161 -161 -25
-27 -65 -73 -90 -101 -25 -28 -46 -54 -46 -58 0 -4 -17 -25 -37 -47 -21 -23
-42 -47 -46 -55 -4 -7 -30 -36 -57 -64 -28 -28 -50 -57 -50 -64 0 -7 -20 -33
-45 -59 -25 -25 -66 -74 -92 -108 -56 -77 -175 -219 -231 -277 -68 -70 -57
-114 41 -170 53 -30 73 -19 151 87 36 50 86 110 110 133 24 24 60 69 80 101
19 31 40 57 45 57 5 0 42 44 82 98 40 53 105 133 144 177 40 44 80 94 91 110
10 17 41 56 69 87 90 101 143 187 148 241 2 26 0 50 -4 53 -5 3 -9 13 -9 23 0
9 -6 25 -13 35 -12 16 -15 15 -40 -13z m33 -21 c0 -11 -7 -20 -15 -20 -13 0
-14 4 -5 20 6 11 13 20 15 20 3 0 5 -9 5 -20z"/>
<path d="M1606 7689 c-20 -16 -26 -29 -26 -59 0 -48 27 -71 153 -130 95 -45
217 -67 217 -39 0 31 -60 117 -88 127 -16 5 -54 31 -86 56 -86 71 -124 81
-170 45z"/>
<path d="M5132 7545 c-19 -16 -32 -39 -37 -62 -4 -21 -12 -44 -18 -52 -7 -8
-11 -17 -10 -20 3 -8 -5 -45 -19 -96 -14 -49 -11 -38 -28 -110 -17 -72 -14
-64 -28 -98 -7 -16 -12 -36 -12 -45 0 -9 -6 -29 -14 -44 -8 -15 -17 -42 -21
-60 -3 -18 -15 -55 -25 -83 -10 -27 -40 -106 -65 -175 -26 -69 -55 -143 -65
-165 -54 -121 -170 -397 -170 -404 0 -9 -44 -113 -61 -145 -6 -10 -27 -60 -46
-110 -19 -50 -39 -96 -43 -101 -5 -6 -18 -35 -30 -65 -12 -30 -37 -89 -57
-130 -19 -41 -48 -102 -63 -135 -16 -33 -45 -103 -66 -155 -20 -52 -51 -124
-69 -160 -18 -36 -38 -83 -45 -105 -7 -22 -36 -89 -65 -150 -69 -147 -83 -177
-100 -225 -8 -22 -35 -78 -60 -125 -25 -46 -45 -89 -45 -96 0 -25 -143 -349
-155 -349 -2 0 -16 26 -31 58 -14 31 -59 125 -99 207 -41 83 -86 179 -100 215
-15 36 -54 120 -86 186 -33 67 -59 126 -59 132 0 8 -42 93 -138 277 -11 22
-42 85 -68 140 -26 55 -62 129 -80 165 -17 36 -35 76 -39 90 -9 33 -91 193
-121 237 -33 49 -32 67 4 58 15 -3 63 -10 107 -15 251 -28 352 -55 429 -113
54 -40 66 -69 75 -180 7 -77 11 -91 36 -117 41 -43 67 -39 129 23 48 47 55 59
69 124 37 167 -39 303 -218 394 -99 49 -200 73 -413 98 -52 6 -97 13 -101 16
-4 2 -64 7 -132 11 -68 3 -128 8 -132 11 -4 3 -23 35 -41 71 -18 37 -58 118
-89 179 -31 62 -57 115 -57 119 0 3 -17 42 -38 87 -77 163 -92 204 -118 322
-22 102 -25 134 -20 208 4 49 11 96 16 105 29 51 63 177 55 203 -8 24 -31 24
-120 -1 -38 -10 -72 -17 -74 -14 -2 2 -9 0 -15 -5 -12 -10 -100 -28 -176 -37
-25 -3 -52 -9 -60 -14 -23 -11 -278 -12 -340 0 -30 6 -66 12 -80 15 -89 17
-191 23 -224 14 -45 -12 -70 -48 -61 -87 8 -37 25 -46 235 -119 148 -51 231
-115 292 -223 17 -30 36 -62 43 -70 10 -14 32 -77 40 -120 2 -10 9 -35 16 -56
18 -52 26 -3270 9 -3436 -11 -110 -46 -236 -74 -267 -9 -10 -16 -22 -16 -28 0
-19 -132 -112 -199 -139 -36 -15 -80 -33 -96 -40 -43 -18 -217 -74 -231 -74
-22 0 -84 -66 -84 -90 0 -13 17 -39 40 -62 37 -37 43 -40 77 -33 21 4 49 13
63 20 14 7 41 16 60 20 19 4 40 11 45 15 6 5 51 15 100 24 50 9 126 23 170 31
158 29 453 40 585 23 87 -12 179 -27 260 -42 41 -8 107 -19 145 -27 85 -15
120 -8 139 28 13 26 12 30 -15 64 -21 27 -41 40 -75 48 -25 7 -73 25 -105 41
-32 17 -65 30 -73 30 -8 0 -47 27 -88 61 -124 103 -167 189 -197 389 -18 117
-19 210 -20 1413 -1 708 2 1287 6 1287 9 0 37 -56 182 -355 51 -104 96 -197
102 -205 5 -8 14 -26 19 -39 6 -13 27 -58 46 -100 20 -42 57 -121 83 -176 25
-55 85 -176 132 -270 48 -93 90 -181 94 -195 15 -49 217 -471 245 -510 9 -14
30 -54 45 -90 48 -113 116 -253 131 -267 8 -8 14 -20 14 -26 0 -7 7 -25 16
-42 9 -16 24 -52 34 -80 16 -45 77 -175 100 -215 8 -14 55 -106 89 -177 9 -18
18 -32 21 -32 19 0 134 207 155 279 4 14 29 70 56 125 26 55 69 149 94 210 25
60 52 117 59 125 16 20 63 130 66 158 1 4 7 14 15 22 7 8 16 26 20 40 4 14 24
61 45 105 33 67 68 145 75 165 1 3 6 16 12 30 6 14 16 43 24 65 7 22 21 49 31
61 10 11 18 23 18 27 0 3 15 39 34 79 19 40 55 123 81 183 26 61 58 134 72
163 13 30 31 72 38 93 18 51 32 81 126 277 43 90 83 180 89 200 5 20 19 53 31
72 12 19 30 59 40 88 10 29 34 80 54 112 19 31 35 63 35 69 0 6 3 11 8 11 12
0 5 -2574 -8 -2660 -33 -222 -116 -362 -257 -433 -59 -30 -228 -77 -277 -77
-53 0 -104 -24 -116 -55 -15 -39 -13 -50 17 -86 l27 -32 106 6 c122 6 387 34
444 46 55 12 443 6 491 -7 101 -28 600 -60 653 -41 41 14 49 32 44 97 -5 63
-12 68 -113 76 -230 19 -351 68 -439 179 -86 107 -111 175 -131 353 -5 45 -8
623 -7 1313 l3 1232 29 -68 c16 -37 41 -95 56 -128 15 -33 46 -107 69 -165 43
-106 50 -121 95 -220 13 -30 28 -68 32 -85 4 -16 13 -39 20 -50 8 -11 14 -25
14 -32 0 -8 18 -50 39 -96 22 -45 43 -95 47 -112 7 -30 30 -84 85 -203 16 -35
29 -67 29 -71 0 -7 68 -164 111 -257 10 -22 19 -45 19 -50 0 -6 15 -46 34 -90
31 -74 47 -112 51 -124 1 -3 6 -16 12 -30 6 -14 21 -54 33 -90 12 -36 31 -83
41 -106 11 -22 19 -44 19 -48 0 -7 22 -57 66 -152 13 -28 24 -54 24 -58 0 -5
9 -21 21 -37 11 -16 22 -37 24 -47 6 -34 98 -264 124 -312 4 -8 20 -16 34 -18
23 -3 30 7 95 140 38 79 73 154 77 168 4 14 13 32 20 40 7 8 25 36 39 63 14
26 37 66 50 90 13 24 27 57 30 73 4 16 21 52 38 79 18 28 63 114 100 193 37
79 78 158 91 175 12 18 37 64 54 102 66 147 83 181 106 220 53 89 85 154 91
183 4 16 20 50 35 74 44 70 105 188 125 243 10 28 34 79 54 115 19 36 60 115
89 175 149 302 309 612 324 630 11 11 6 -2683 -4 -2733 -6 -31 -34 -146 -40
-167 -2 -5 -11 -27 -20 -49 -9 -21 -17 -42 -17 -46 0 -4 -28 -34 -63 -67 -64
-62 -135 -103 -268 -154 -81 -31 -108 -53 -104 -82 5 -31 34 -66 58 -72 23 -6
183 17 242 35 17 5 48 11 70 14 22 4 78 12 125 18 117 17 377 16 480 -1 47 -8
95 -15 107 -16 13 -1 26 -5 30 -8 3 -4 17 -7 31 -7 14 0 41 -4 61 -9 20 -5 63
-15 96 -21 33 -6 95 -23 137 -36 60 -20 81 -23 97 -15 25 14 71 73 71 92 0 40
-111 102 -245 135 -36 10 -138 53 -177 76 -26 16 -51 28 -57 28 -18 0 -101
105 -131 165 -16 33 -32 80 -36 105 -4 25 -9 50 -13 55 -3 6 -8 24 -10 40 -2
17 -6 759 -8 1650 -5 1657 -4 1683 33 1865 21 99 84 219 154 290 63 64 213
143 294 155 77 11 91 20 125 80 37 65 33 78 -28 96 -47 14 -140 7 -266 -21
-112 -24 -332 -29 -395 -9 -19 6 -51 13 -70 15 -19 3 -50 9 -67 15 -18 6 -48
12 -67 15 -19 2 -46 8 -59 13 -14 6 -27 8 -29 6 -2 -2 -26 2 -52 10 -48 15
-89 12 -113 -8 -10 -7 -6 -22 17 -66 36 -68 68 -174 76 -256 4 -44 -1 -91 -20
-182 -23 -106 -35 -143 -76 -238 -5 -11 -14 -38 -21 -60 -6 -22 -17 -47 -24
-55 -6 -8 -22 -42 -35 -75 -13 -33 -57 -126 -97 -206 -85 -169 -60 -154 -268
-169 -71 -5 -143 -12 -160 -15 -16 -2 -55 -7 -85 -10 -30 -3 -68 -10 -85 -15
-16 -5 -54 -12 -84 -15 -129 -17 -294 -93 -354 -165 -66 -77 -80 -115 -80
-213 -1 -82 2 -98 28 -150 29 -58 64 -88 116 -100 20 -5 31 0 51 21 32 34 39
54 44 121 2 30 8 59 13 65 5 6 12 25 16 43 7 33 53 81 103 107 15 8 64 22 107
31 44 9 89 19 100 21 11 3 72 9 135 15 63 6 131 14 150 19 51 14 57 -1 21 -53
-17 -25 -31 -48 -31 -51 0 -7 -77 -175 -97 -211 -47 -85 -105 -206 -124 -254
-11 -30 -33 -74 -49 -97 -15 -23 -31 -53 -35 -66 -4 -12 -13 -30 -20 -38 -8
-8 -16 -27 -20 -42 -4 -15 -13 -32 -20 -38 -7 -6 -23 -39 -36 -73 -12 -34 -32
-78 -43 -97 -36 -65 -106 -210 -106 -222 -1 -7 -17 -40 -36 -73 -19 -33 -69
-127 -110 -210 -41 -82 -81 -161 -89 -175 -8 -14 -15 -35 -15 -47 0 -34 -18
-28 -28 10 -6 17 -33 85 -61 149 -28 64 -53 130 -57 145 -4 15 -22 60 -40 99
-18 38 -36 83 -40 99 -4 16 -28 72 -54 125 -26 52 -57 127 -70 165 -12 39 -26
75 -30 80 -3 6 -15 33 -24 60 -10 28 -24 64 -31 80 -36 84 -68 161 -109 265
-26 63 -51 123 -56 132 -6 10 -27 64 -49 121 -33 89 -64 164 -116 282 -7 17
-16 41 -20 55 -4 14 -11 30 -15 35 -9 12 -83 196 -100 250 -7 22 -22 60 -33
85 -10 25 -26 59 -33 77 -8 17 -14 36 -14 43 0 6 -25 75 -56 153 -67 169 -85
219 -125 352 -17 55 -42 137 -56 182 -14 45 -25 86 -25 90 0 4 -5 19 -10 33
-11 27 -36 134 -45 190 -9 57 -21 79 -55 100 -44 27 -80 25 -116 -5z"/>
<path d="M2555 6983 c-3 -38 -9 -78 -12 -91 -6 -26 27 -59 177 -180 52 -41
110 -89 128 -106 l32 -30 61 61 60 61 -38 23 c-21 13 -60 44 -88 69 -27 26
-68 57 -90 70 -22 13 -62 44 -90 70 -27 25 -62 54 -77 64 -15 10 -30 26 -33
37 -12 36 -23 19 -30 -48z"/>
<path d="M808 6850 c-16 -12 -28 -30 -28 -41 0 -23 51 -56 100 -65 19 -4 55
-14 80 -24 46 -18 108 -40 190 -65 91 -28 145 -47 160 -54 9 -5 74 -23 145
-41 72 -17 139 -36 150 -40 27 -11 156 -40 178 -40 9 0 17 3 18 8 0 4 2 24 5
44 4 36 3 38 -43 58 -26 11 -68 26 -93 31 -25 6 -54 15 -65 19 -23 10 -115 41
-130 44 -5 1 -14 4 -20 7 -5 4 -27 9 -48 13 -21 4 -71 20 -111 36 -41 17 -98
35 -127 41 -30 6 -60 16 -66 21 -7 6 -13 8 -13 5 0 -3 -37 8 -82 24 -119 42
-166 46 -200 19z"/>
<path d="M7540 6584 c-14 -36 -12 -74 4 -80 8 -3 17 -15 20 -27 9 -35 12 -16
8 61 -4 74 -15 91 -32 46z"/>
<path d="M7616 6593 c-19 -20 3 -93 29 -93 16 0 30 42 22 64 -7 18 -42 38 -51
29z"/>
<path d="M7581 6544 c0 -11 3 -14 6 -6 3 7 2 16 -1 19 -3 4 -6 -2 -5 -13z"/>
<path d="M7602 6480 c0 -14 2 -19 5 -12 2 6 2 18 0 25 -3 6 -5 1 -5 -13z"/>
<path d="M8895 6154 c-44 -6 -141 -19 -215 -28 -166 -21 -180 -26 -180 -65 0
-60 29 -69 166 -50 42 6 86 11 98 11 12 0 37 4 56 9 19 4 57 10 85 14 109 14
146 26 155 51 6 15 6 34 0 49 -11 29 -28 29 -165 9z"/>
<path d="M473 5789 c-16 -32 -44 -252 -33 -263 11 -11 35 -14 180 -26 63 -5
153 -14 200 -19 47 -6 130 -13 185 -16 55 -3 136 -10 180 -15 44 -5 118 -12
165 -15 47 -3 169 -12 273 -21 103 -8 192 -12 197 -9 6 3 10 44 10 89 l0 83
-62 12 c-35 7 -96 18 -136 26 -40 8 -87 15 -104 15 -17 0 -45 4 -62 9 -26 8
-110 26 -211 45 -11 2 -56 9 -100 16 -101 15 -107 16 -125 23 -8 4 -53 11
-100 17 -109 15 -112 15 -130 23 -8 3 -51 11 -96 17 -44 6 -91 13 -105 16 -13
3 -44 8 -69 11 -40 5 -47 2 -57 -18z"/>
<path d="M8520 4960 l0 -100 38 0 c20 0 192 -7 382 -15 190 -8 499 -18 688
-21 l342 -7 2 44 c2 76 -4 144 -15 150 -5 4 -98 10 -206 14 -108 3 -353 13
-546 21 -192 8 -425 14 -517 14 l-168 0 0 -100z"/>
<path d="M10040 4910 c0 -47 4 -80 10 -80 6 0 10 33 10 80 0 47 -4 80 -10 80
-6 0 -10 -33 -10 -80z"/>
<path d="M2534 4576 c-65 -29 -81 -87 -38 -143 20 -27 32 -33 62 -33 48 0 53
4 88 71 35 64 31 93 -11 109 -35 13 -64 12 -101 -4z"/>
<path d="M1688 4450 c-15 -4 -29 -6 -32 -3 -3 3 -11 1 -18 -4 -7 -6 -38 -14
-68 -18 -30 -4 -62 -9 -70 -11 -8 -2 -67 -14 -130 -28 -337 -71 -335 -71 -372
-104 -24 -21 -23 -65 3 -88 31 -28 89 -26 314 12 110 19 247 41 305 49 58 9
119 18 137 21 18 2 46 17 63 31 26 22 31 31 27 60 -5 31 -26 66 -52 85 -13 10
-72 9 -107 -2z"/>
<path d="M7938 4223 c-10 -2 -18 -9 -18 -14 0 -6 8 -5 20 1 11 6 20 13 20 15
0 3 -1 4 -2 4 -2 -1 -11 -3 -20 -6z"/>
<path d="M8517 3983 c-2 -5 -5 -65 -6 -136 -2 -115 -1 -128 16 -133 10 -4 45
-17 78 -29 33 -12 91 -32 128 -44 38 -12 85 -30 105 -41 56 -30 229 -100 247
-100 9 0 49 -16 88 -35 39 -19 76 -35 82 -35 5 0 26 -8 45 -19 19 -10 53 -24
75 -31 22 -7 66 -25 98 -41 31 -15 58 -28 60 -27 1 0 18 -6 38 -15 70 -29 74
-29 92 3 21 36 57 136 57 160 0 12 -19 24 -62 40 -35 13 -97 38 -138 57 -41
19 -88 40 -105 47 -16 7 -50 22 -75 33 -97 43 -196 86 -225 95 -16 6 -58 24
-92 40 -74 34 -198 86 -233 98 -14 4 -52 21 -85 38 -168 85 -180 89 -188 75z"/>
<path d="M2877 3637 c-15 -13 -44 -29 -63 -36 -20 -7 -61 -31 -92 -52 -30 -21
-60 -39 -65 -39 -24 0 -117 -52 -136 -76 -28 -36 -29 -122 -2 -155 l20 -24 33
19 c18 11 58 33 88 49 30 17 98 58 150 92 52 35 113 72 136 83 22 11 45 32 52
46 10 22 8 30 -21 68 -39 50 -62 56 -100 25z"/>
<path d="M7488 3313 c-30 -35 -39 -62 -28 -83 6 -11 15 -20 20 -20 5 0 16 -15
25 -33 8 -18 53 -71 100 -117 l85 -84 37 21 c21 12 47 36 57 54 l20 32 -88 84
c-103 98 -183 163 -200 163 -7 0 -20 -8 -28 -17z"/>
<path d="M1708 3138 c-15 -12 -22 -41 -19 -76 1 -7 12 -18 26 -24 34 -15 65
12 65 57 0 50 -36 71 -72 43z"/>
<path d="M3444 2858 c-62 -93 -196 -272 -206 -276 -10 -5 -173 -243 -194 -285
-9 -18 -34 -51 -54 -73 -21 -23 -46 -56 -54 -73 -9 -17 -45 -67 -80 -110 -35
-43 -81 -110 -101 -147 -21 -38 -65 -106 -97 -151 -51 -72 -57 -85 -48 -104
15 -27 47 -59 60 -59 15 0 12 -21 -7 -42 -9 -10 -12 -18 -7 -18 5 0 29 26 54
57 25 31 65 78 90 103 25 26 72 84 105 129 33 46 78 104 99 129 21 26 45 60
52 77 7 16 24 41 39 55 15 14 35 41 45 60 10 19 40 60 67 90 62 72 102 123
133 170 14 20 53 72 88 115 34 43 75 101 92 129 16 28 47 71 69 96 63 69 55
131 -23 179 -55 34 -69 29 -122 -51z"/>
<path d="M6990 2836 c-19 -11 -37 -24 -38 -28 -2 -5 -17 -22 -33 -38 l-30 -30
54 -67 c47 -60 155 -200 240 -311 15 -20 38 -53 51 -72 13 -19 38 -51 56 -70
17 -19 44 -57 60 -85 16 -27 44 -64 63 -82 18 -17 51 -57 72 -90 78 -115 211
-263 237 -263 15 0 46 28 47 43 2 14 -141 282 -164 307 -29 34 -57 75 -90 135
-15 28 -39 66 -54 85 -14 19 -37 51 -50 70 -72 105 -187 271 -229 330 -63 89
-134 178 -144 182 -7 3 -29 -4 -48 -16z"/>
<path d="M4277 2408 c-22 -18 -75 -138 -97 -223 -10 -38 -28 -91 -40 -117 -11
-26 -21 -50 -21 -53 0 -2 -10 -28 -23 -57 -13 -29 -26 -66 -30 -83 -4 -16 -14
-43 -21 -60 -32 -70 -65 -155 -65 -167 0 -11 -56 -161 -136 -366 -13 -34 -24
-69 -24 -78 0 -15 -36 -115 -66 -181 -8 -17 -14 -38 -14 -46 0 -8 -7 -20 -14
-27 -8 -6 -20 -37 -26 -68 -6 -31 -17 -70 -24 -87 -30 -70 -69 -180 -64 -181
2 0 -3 -8 -9 -16 -10 -12 -8 -19 15 -39 15 -13 38 -30 52 -38 33 -19 109 -15
134 7 22 20 69 121 82 175 1 4 3 9 4 12 1 3 3 8 5 13 1 4 5 15 9 24 4 9 9 22
10 30 2 7 6 20 9 28 16 40 49 139 58 175 8 34 26 85 60 170 12 32 116 327 138
395 70 211 104 310 116 335 7 17 21 55 30 85 8 30 20 69 26 85 6 17 12 37 14
45 2 8 19 53 39 98 20 46 38 96 41 112 7 38 -24 75 -82 94 -56 19 -64 20 -86
4z"/>
<path d="M6138 2355 c-20 -14 -39 -33 -43 -44 -6 -19 10 -105 23 -125 4 -6 14
-38 23 -71 9 -33 26 -91 38 -130 23 -74 47 -156 78 -270 11 -39 24 -79 30 -90
6 -11 20 -47 32 -80 12 -33 29 -73 36 -90 26 -56 105 -290 105 -313 1 -53 76
-72 106 -27 26 40 5 182 -61 410 -14 50 -33 126 -41 170 -9 44 -19 89 -24 100
-4 11 -20 63 -35 115 -15 52 -38 127 -50 165 -13 39 -30 97 -39 130 -33 121
-40 140 -54 158 -22 25 -80 22 -124 -8z"/>
<path d="M5235 2204 c-69 -35 -65 8 -65 -680 0 -342 3 -656 7 -699 6 -74 7
-78 37 -90 25 -11 35 -11 57 1 22 11 28 23 34 66 4 29 11 58 16 64 11 14 28
521 31 958 l3 338 -35 29 c-40 33 -45 34 -85 13z"/>
<path d="M10080 80 l0 -80 80 0 80 0 0 80 0 80 -80 0 -80 0 0 -80z"/>
</g>
</svg>
